# Blender 3.3.1
# www.blender.org
o trashcan_01_dup_2.Shape
v 7.076321 0.739827 -1.357237
v 7.076539 0.739827 -0.954818
v 7.076539 0.756074 -0.954818
v 7.076321 0.756074 -1.357237
v 7.480440 0.756074 -0.954818
v 7.480440 0.739827 -1.357242
v 7.480440 0.756074 -1.357242
v 7.480440 0.739827 -0.954818
v 7.433196 0.100715 -1.311167
v 7.433194 0.100715 -1.002431
v 7.281039 0.100715 -1.002431
v 7.281039 0.100715 -1.311167
v 7.124458 0.100715 -1.002431
v 7.124460 0.100715 -1.311167
v 7.466364 0.756074 -1.345870
v 7.466364 0.756074 -0.963580
v 7.401496 0.930111 -1.311311
v 7.401496 0.930111 -0.998138
v 7.383755 0.939689 -1.309410
v 7.383755 0.939689 -1.000039
v 7.275640 0.939759 -1.309468
v 7.275640 0.939759 -0.999982
v 7.238818 0.933165 -0.998675
v 7.237321 0.932641 -1.310878
v 7.204869 0.921140 -1.278175
v 7.207889 0.916814 -1.314000
v 7.204869 0.921140 -1.028367
v 7.207889 0.916814 -0.995449
v 7.091054 0.766101 -1.301973
v 7.089767 0.756074 -1.345755
v 7.091054 0.766101 -1.004405
v 7.089767 0.756074 -0.963695
v 7.083694 0.756074 -1.303513
v 7.083694 0.756074 -1.002746
v 7.473063 0.665131 -0.962562
v 7.445052 0.118695 -0.990573
v 7.473063 0.665131 -1.351035
v 7.445052 0.118695 -1.323025
v 7.084590 0.665131 -1.351035
v 7.112600 0.118695 -0.990573
v 7.084590 0.665131 -0.962562
v 7.112600 0.118695 -1.323025
v 7.281609 0.665131 -1.351035
v 7.281208 0.118695 -1.323025
v 7.276752 0.665131 -0.962562
v 7.281208 0.118695 -0.990573
v 7.477902 0.668327 -1.343088
v 7.481266 0.667845 -0.968688
v 7.470378 0.668280 -0.960399
v 7.480220 0.678093 -1.202704
v 7.279703 0.667952 -0.957121
v 7.482803 0.699787 -1.292165
v 7.479637 0.712872 -1.353883
v 7.089073 0.668042 -0.958909
v 7.082510 0.667793 -0.962204
v 7.269925 0.677661 -0.953492
v 7.089285 0.714998 -0.955585
v 7.474067 0.714832 -0.953780
v 7.238796 0.696961 -0.955158
v 7.259037 0.704936 -0.946607
v 7.197375 0.719926 -0.949025
v 7.085404 0.721416 -0.950361
v 7.483501 0.716259 -0.962918
v 7.081376 0.714984 -0.955930
v 7.482874 0.703848 -1.058646
v 7.480428 0.696917 -1.195962
v 7.491942 0.706066 -1.223449
v 7.484845 0.716253 -1.071449
v 7.480306 0.713678 -1.198624
v 7.487299 0.724932 -1.202170
v 7.484557 0.720052 -1.357977
v 7.485254 0.737307 -1.350870
v 7.485738 0.724281 -0.960494
v 7.479327 0.725526 -0.947539
v 7.484866 0.736833 -0.958367
v 7.410563 0.720678 -0.949633
v 7.471866 0.735862 -0.950940
v 7.412795 0.735580 -0.946379
v 7.477745 0.743927 -1.096295
v 7.472463 0.743611 -1.352093
v 7.456581 0.742872 -1.334228
v 7.449785 0.742647 -0.980486
v 7.476755 0.742927 -0.960717
v 7.375182 0.744017 -0.952477
v 7.076031 0.735532 -0.950499
v 7.080013 0.742289 -0.959033
v 7.095990 0.742290 -0.987710
v 7.077491 0.721522 -0.950456
v 7.069894 0.739489 -1.007415
v 7.098701 0.742169 -1.335366
v 7.071617 0.722554 -0.982279
v 7.066299 0.739741 -1.273258
v 7.064916 0.719840 -1.097234
v 7.075320 0.708220 -0.975292
v 7.076313 0.717541 -1.032467
v 7.076750 0.715656 -1.205999
v 7.076230 0.696585 -0.978197
v 7.067499 0.704423 -1.010799
v 7.068424 0.726374 -1.222650
v 7.064208 0.704163 -1.228652
v 7.076049 0.692583 -1.158492
v 7.075187 0.678099 -1.060916
v 7.066918 0.677818 -1.186122
v 7.080302 0.668889 -1.346910
v 7.077119 0.698965 -1.352264
v 7.086067 0.668805 -1.353874
v 7.074698 0.707513 -1.324603
v 7.071824 0.717478 -1.327458
v 7.080092 0.716715 -1.349248
v 7.071929 0.722452 -1.357786
v 7.084338 0.716323 -1.358819
v 7.072899 0.734221 -1.357727
v 7.080822 0.721048 -1.362909
v 7.080812 0.742392 -1.355446
v 7.084358 0.737972 -1.362511
v 7.289995 0.723689 -1.368128
v 7.231592 0.737974 -1.366117
v 7.299764 0.748657 -1.353487
v 7.412291 0.739975 -1.365996
v 7.475411 0.735707 -1.361678
v 7.452886 0.720377 -1.364197
v 7.421020 0.715524 -1.358278
v 7.453359 0.709921 -1.363592
v 7.129064 0.709307 -1.360429
v 7.343463 0.705680 -1.366829
v 7.091537 0.689543 -1.358351
v 7.349005 0.698012 -1.361800
v 7.320229 0.678758 -1.360250
v 7.463252 0.685809 -1.357867
v 7.469617 0.668594 -1.355878
v 7.104432 0.756074 -1.351551
v 7.215450 0.905852 -1.321348
v 7.452856 0.756074 -1.351551
v 7.244484 0.921156 -1.318239
v 7.382925 0.921635 -1.318540
v 7.282188 0.927231 -1.317037
v 7.104432 0.756074 -0.957898
v 7.215450 0.905852 -0.988102
v 7.452856 0.756074 -0.957898
v 7.245342 0.919530 -0.990139
v 7.282188 0.927231 -0.992413
v 7.382925 0.921635 -0.990909
vn -0.8939 -0.0000 -0.4483
vn -0.7056 -0.0000 0.7086
vn -0.6586 0.3590 0.6614
vn -0.4112 0.3861 -0.8257
vn 0.6555 0.6798 0.3289
vn 0.7056 -0.0000 -0.7086
vn 0.4750 0.7395 -0.4770
vn 0.4459 -0.0000 0.8951
vn 0.0546 -0.9969 -0.0559
vn 0.1930 -0.9766 0.0951
vn -0.0000 -0.9993 0.0380
vn -0.0000 -0.9993 -0.0376
vn -0.0531 -0.9970 0.0560
vn -0.1884 -0.9774 -0.0956
vn 0.8770 0.4795 -0.0306
vn 0.9211 0.3889 0.0177
vn 0.9213 0.3860 -0.0464
vn 0.8778 0.4707 0.0893
vn 0.1292 0.9888 -0.0747
vn 0.0414 0.9980 0.0471
vn -0.0467 0.9986 -0.0258
vn -0.0450 0.9976 0.0520
vn -0.2556 0.9661 0.0369
vn -0.2641 0.9625 -0.0627
vn -0.7005 0.7135 -0.0155
vn -0.7025 0.6187 -0.3517
vn -0.7771 0.6293 0.0095
vn -0.6927 0.6172 0.3731
vn -0.8046 0.5935 -0.0160
vn -0.7008 0.6497 -0.2947
vn -0.8037 0.5945 0.0252
vn -0.6967 0.6454 0.3133
vn -0.5229 0.8524 -0.0050
vn -0.5456 0.8380 0.0097
vn 0.8897 -0.0903 0.4475
vn 0.8917 -0.0806 0.4454
vn 0.9622 -0.0728 -0.2623
vn 0.6962 -0.1038 -0.7103
vn -0.9622 -0.0680 -0.2638
vn -0.8932 -0.0879 0.4409
vn -0.8945 -0.0810 0.4397
vn -0.6762 -0.0919 -0.7309
vn -0.0000 -0.0609 -0.9981
vn 0.0002 -0.0872 -0.9962
vn -0.0000 -0.0590 0.9983
vn -0.0000 -0.0872 0.9962
vn 0.9036 -0.4262 -0.0436
vn 0.9699 -0.2387 0.0490
vn 0.0530 -0.2673 0.9622
vn 0.9971 -0.0758 -0.0058
vn 0.0035 -0.5851 0.8110
vn 0.9793 -0.2003 -0.0277
vn 0.9647 -0.0935 -0.2464
vn -0.0336 -0.2526 0.9670
vn -0.8063 -0.5830 0.0997
vn 0.0006 -0.0940 0.9956
vn -0.0412 -0.1556 0.9870
vn 0.0597 -0.1541 0.9863
vn -0.0047 -0.2465 0.9691
vn -0.0046 -0.2658 0.9640
vn -0.0061 -0.0736 0.9973
vn -0.0154 -0.2608 0.9653
vn 0.9896 -0.1170 0.0833
vn -0.8512 -0.2076 0.4820
vn 0.9901 -0.1401 0.0041
vn 0.9239 -0.3825 0.0064
vn 0.9997 0.0223 -0.0084
vn 0.9991 -0.0411 0.0058
vn 0.9651 0.2611 -0.0209
vn 0.9917 -0.1286 -0.0022
vn 0.9476 -0.2365 -0.2146
vn 0.8604 0.5090 -0.0228
vn 0.9967 -0.0765 0.0285
vn 0.2175 -0.1345 0.9667
vn 0.9125 0.4082 0.0278
vn 0.0080 -0.2745 0.9616
vn 0.0735 0.3170 0.9456
vn 0.0064 0.1822 0.9832
vn 0.1822 0.9833 0.0002
vn 0.1255 0.9874 -0.0967
vn -0.0238 0.9944 0.1028
vn -0.0151 0.9997 -0.0168
vn 0.1069 0.9830 0.1491
vn -0.0022 0.9554 0.2952
vn -0.1411 0.3631 0.9210
vn -0.0235 0.9977 0.0637
vn -0.0519 0.9987 -0.0030
vn -0.8727 -0.3236 0.3655
vn -0.4469 0.8945 0.0134
vn -0.0576 0.9953 0.0775
vn -0.9651 -0.2479 0.0839
vn -0.6364 0.7714 -0.0065
vn -0.9524 -0.3048 0.0092
vn -0.9376 0.3428 0.0579
vn -0.7588 -0.6513 0.0027
vn -0.9792 0.2027 0.0126
vn -0.9716 -0.2268 0.0683
vn -0.9973 0.0663 0.0318
vn -0.9325 -0.3600 -0.0311
vn -0.9984 -0.0550 -0.0145
vn -0.9750 -0.2221 0.0035
vn -0.9977 0.0547 0.0397
vn -0.9731 -0.2301 -0.0079
vn -0.7925 -0.6086 -0.0396
vn -0.9927 0.0648 -0.1014
vn -0.0661 -0.3660 -0.9283
vn -0.8239 -0.5633 -0.0624
vn -0.9988 -0.0305 -0.0388
vn -0.8953 -0.2794 -0.3470
vn -0.9854 -0.1379 -0.0994
vn -0.0739 -0.4310 -0.8993
vn -0.9844 0.0998 -0.1450
vn -0.0560 -0.1623 -0.9851
vn -0.0884 0.9689 -0.2312
vn -0.0431 0.1951 -0.9798
vn -0.0054 -0.2877 -0.9577
vn -0.0136 0.5721 -0.8201
vn -0.0030 0.9953 -0.0971
vn 0.0238 0.4811 -0.8764
vn 0.1988 0.3255 -0.9244
vn 0.0509 -0.2172 -0.9748
vn -0.0100 -0.0823 -0.9966
vn 0.0650 -0.0986 -0.9930
vn -0.0196 0.2512 -0.9677
vn -0.0104 0.0923 -0.9957
vn -0.0236 -0.1648 -0.9860
vn 0.0069 -0.2323 -0.9726
vn -0.0027 -0.2923 -0.9563
vn 0.0573 -0.1387 -0.9887
vn 0.1853 -0.2689 -0.9452
vn -0.0286 0.2899 -0.9566
vn -0.0142 0.2106 -0.9775
vn 0.0199 0.2276 -0.9735
vn -0.0083 0.2269 -0.9739
vn 0.0408 0.2381 -0.9704
vn -0.0026 0.2390 -0.9710
vn -0.0289 0.2587 0.9655
vn -0.0163 0.2084 0.9779
vn 0.0202 0.2174 0.9759
vn -0.0082 0.2266 0.9740
vn 0.0019 0.2430 0.9700
vn 0.0408 0.2381 0.9704
vt 0.111300 0.883400
vt 0.112000 0.928700
vt 0.403800 0.883400
vt 0.407000 0.911900
vt 0.403800 0.895100
vt 0.407000 0.900100
vt 0.087000 0.460400
vt 0.088700 0.469200
vt 0.111300 0.895100
vt 0.112000 0.916900
vt 0.378700 0.460900
vt 0.391100 0.995100
vt 0.403300 0.864500
vt 0.113300 0.900100
vt 0.085500 0.010300
vt 0.380600 0.469700
vt 0.110800 0.876300
vt 0.405800 0.928700
vt 0.110800 0.864500
vt 0.405800 0.916900
vt 0.380600 0.010300
vt 0.685100 0.995000
vt 0.403300 0.876300
vt 0.113300 0.911900
vt 0.350800 0.843600
vt 0.928200 0.013200
vt 0.417000 0.012700
vt 0.126300 0.843600
vt 0.703100 0.013200
vt 0.622600 0.430200
vt 0.126300 0.732900
vt 0.511200 0.430200
vt 0.350800 0.732900
vt 0.527800 0.012700
vt 0.126300 0.619100
vt 0.910600 0.433100
vt 0.397200 0.430200
vt 0.350800 0.619100
vt 0.684100 0.433100
vt 0.642100 0.012700
vt 0.372300 0.020500
vt 0.674800 0.987400
vt 0.092000 0.020500
vt 0.370400 0.475100
vt 0.346900 0.157200
vt 0.627000 0.860500
vt 0.117100 0.157200
vt 0.322000 0.601100
vt 0.345500 0.171900
vt 0.614300 0.853400
vt 0.118600 0.171900
vt 0.309100 0.608200
vt 0.345200 0.252000
vt 0.535600 0.853000
vt 0.118700 0.251500
vt 0.229700 0.608400
vt 0.117700 0.279300
vt 0.203100 0.603500
vt 0.346200 0.280800
vt 0.508300 0.858400
vt 0.321800 0.305200
vt 0.348400 0.306200
vt 0.487300 0.870100
vt 0.140000 0.305200
vt 0.115500 0.305700
vt 0.180800 0.591600
vt 0.338400 0.446300
vt 0.370400 0.451200
vt 0.400900 0.987400
vt 0.123200 0.446300
vt 0.093400 0.451200
vt 0.093100 0.475600
vt 0.339600 0.455100
vt 0.121900 0.455100
vt 0.673800 0.424800
vt 0.651400 0.841800
vt 0.006400 0.253400
vt 0.694300 0.026400
vt 0.631300 0.443400
vt 0.957500 0.424800
vt 0.387000 0.424300
vt 0.001800 0.007800
vt 0.009600 0.988500
vt 0.937000 0.026400
vt 0.408200 0.025400
vt 0.655300 0.842300
vt 0.670400 0.424800
vt 0.006700 0.743700
vt 0.919400 0.441900
vt 0.388700 0.443400
vt 0.939900 0.842300
vt 0.368200 0.841800
vt 0.007900 0.504200
vt 0.007800 0.505600
vt 0.675300 0.441900
vt 0.650900 0.025900
vt 0.526900 0.424800
vt 0.003600 0.869100
vt 0.527800 0.025900
vt 0.508300 0.841800
vt 0.003600 0.380400
vt 0.511700 0.443400
vt 0.005500 0.012700
vt 0.012100 0.994400
vt 0.011500 0.249000
vt 0.008800 0.255400
vt 0.013800 0.101600
vt 0.007600 0.378400
vt 0.027700 0.044900
vt 0.038200 0.005900
vt 0.038500 0.992100
vt 0.010800 0.501000
vt 0.009800 0.505400
vt 0.014300 0.384800
vt 0.041500 0.500000
vt 0.038800 0.254900
vt 0.026900 0.404300
vt 0.034100 0.391600
vt 0.044000 0.430700
vt 0.046500 0.502700
vt 0.040800 0.251000
vt 0.042400 0.504900
vt 0.033600 0.191900
vt 0.024400 0.106000
vt 0.031900 0.088900
vt 0.041400 0.184100
vt 0.040300 0.104000
vt 0.048000 0.102100
vt 0.044400 0.002900
vt 0.044100 0.995000
vt 0.057000 0.007800
vt 0.056500 0.998000
vt 0.045500 0.253900
vt 0.045900 0.255900
vt 0.052600 0.257300
vt 0.043500 0.293900
vt 0.052100 0.260300
vt 0.052800 0.289600
vt 0.060400 0.171900
vt 0.066400 0.005900
vt 0.063800 0.989800
vt 0.077100 0.015600
vt 0.076900 0.980200
vt 0.076600 0.256800
vt 0.058400 0.255900
vt 0.059300 0.312000
vt 0.054000 0.510500
vt 0.060400 0.510500
vt 0.080300 0.505900
vt 0.047400 0.507100
vt 0.064700 0.523900
vt 0.076300 0.746600
vt 0.050500 0.515900
vt 0.059000 0.700400
vt 0.052600 0.585400
vt 0.039000 0.512900
vt 0.045700 0.547100
vt 0.046500 0.655000
vt 0.028500 0.515100
vt 0.034800 0.535200
vt 0.052800 0.667200
vt 0.037700 0.668200
vt 0.028000 0.625700
vt 0.017700 0.565900
vt 0.019300 0.642600
vt 0.010200 0.740700
vt 0.030100 0.741900
vt 0.009700 0.745400
vt 0.036000 0.725100
vt 0.043300 0.726100
vt 0.040600 0.740000
vt 0.045900 0.742700
vt 0.040400 0.747100
vt 0.053100 0.743400
vt 0.044700 0.745400
vt 0.061200 0.742900
vt 0.056000 0.746600
vt 0.047800 0.873500
vt 0.056400 0.836800
vt 0.065800 0.878300
vt 0.055900 0.950100
vt 0.055100 0.990100
vt 0.043900 0.975100
vt 0.039900 0.955000
vt 0.036700 0.975000
vt 0.035700 0.774400
vt 0.031600 0.907300
vt 0.023000 0.750100
vt 0.026000 0.910900
vt 0.014000 0.893200
vt 0.022700 0.981800
vt 0.012900 0.986100
vt 0.411900 0.990600
vt 0.492900 0.879500
vt 0.665000 0.990600
vt 0.513700 0.868200
vt 0.613300 0.867900
vt 0.540500 0.863600
vt 0.104000 0.472200
vt 0.186400 0.582300
vt 0.360400 0.472200
vt 0.208000 0.592000
vt 0.234500 0.597700
vt 0.308100 0.593800
s 1
f 1/1/1 2/3/2 3/5/3
f 1/1/1 3/5/3 4/9/4
f 5/13/5 6/17/6 7/19/7
f 6/17/6 5/13/5 8/23/8
f 6/18/6 4/10/4 7/20/7
f 4/10/4 6/18/6 1/2/1
f 5/14/5 3/6/3 8/24/8
f 8/24/8 3/6/3 2/4/2
f 9/25/9 10/28/10 11/31/11
f 9/25/9 11/31/11 12/33/12
f 13/35/13 12/33/12 11/31/11
f 14/38/14 12/33/12 13/35/13
f 15/41/15 5/15/5 7/21/7
f 5/15/5 15/41/15 16/43/16
f 17/45/17 16/43/16 15/41/15
f 17/45/17 18/47/18 16/43/16
f 18/47/18 17/45/17 19/49/19
f 18/47/18 19/49/19 20/51/20
f 20/51/20 19/49/19 21/53/21
f 20/51/20 21/53/21 22/55/22
f 21/53/21 23/57/23 22/55/22
f 23/57/23 21/53/21 24/59/24
f 25/61/25 23/57/23 24/59/24
f 24/59/24 26/62/26 25/61/25
f 23/57/23 25/61/25 27/64/27
f 23/57/23 27/64/27 28/65/28
f 26/62/26 29/67/29 25/61/25
f 29/67/29 27/64/27 25/61/25
f 29/67/29 26/62/26 30/68/30
f 31/70/31 28/65/28 27/64/27
f 31/70/31 27/64/27 29/67/29
f 28/65/28 31/70/31 32/71/32
f 33/73/33 29/67/29 30/68/30
f 33/73/33 31/70/31 29/67/29
f 4/11/4 33/73/33 30/68/30
f 3/7/3 33/73/33 4/11/4
f 31/70/31 34/74/34 32/71/32
f 32/71/32 34/74/34 3/7/3
f 31/70/31 33/73/33 34/74/34
f 33/73/33 3/7/3 34/74/34
f 35/75/35 36/78/36 37/80/37
f 37/80/37 36/78/36 38/84/38
f 38/84/38 36/78/36 10/29/10
f 38/84/38 10/29/10 9/26/9
f 39/86/39 40/89/40 41/91/41
f 40/89/40 39/86/39 42/95/42
f 40/89/40 42/95/42 14/39/14
f 40/89/40 14/39/14 13/36/13
f 38/85/38 43/97/43 37/81/37
f 43/97/43 42/96/42 39/87/39
f 43/97/43 38/85/38 44/99/44
f 43/97/43 44/99/44 42/96/42
f 9/27/9 44/99/44 38/85/38
f 44/99/44 14/40/14 42/96/42
f 44/99/44 9/27/9 12/34/12
f 14/40/14 44/99/44 12/34/12
f 36/79/36 35/76/35 45/100/45
f 41/92/41 40/90/40 45/100/45
f 36/79/36 45/100/45 46/102/46
f 46/102/46 45/100/45 40/90/40
f 36/79/36 46/102/46 10/30/10
f 13/37/13 46/102/46 40/90/40
f 10/30/10 46/102/46 11/32/11
f 46/102/46 13/37/13 11/32/11
f 47/103/47 35/77/35 37/82/37
f 35/77/35 47/103/47 48/105/48
f 35/77/35 48/105/48 49/106/49
f 49/106/49 45/101/45 35/77/35
f 50/107/50 48/105/48 47/103/47
f 45/101/45 49/106/49 51/108/51
f 47/103/47 52/109/52 50/107/50
f 47/103/47 53/110/53 52/109/52
f 54/112/54 45/101/45 51/108/51
f 45/101/45 54/112/54 41/93/41
f 41/93/41 54/112/54 55/113/55
f 54/112/54 51/108/51 56/114/56
f 56/114/56 51/108/51 49/106/49
f 57/115/57 54/112/54 56/114/56
f 55/113/55 54/112/54 57/115/57
f 49/106/49 58/116/58 56/114/56
f 58/116/58 49/106/49 48/105/48
f 59/117/59 57/115/57 56/114/56
f 56/114/56 58/116/58 59/117/59
f 57/115/57 59/117/59 60/118/60
f 59/117/59 58/116/58 60/118/60
f 57/115/57 60/118/60 61/119/61
f 61/119/61 60/118/60 58/116/58
f 62/120/62 57/115/57 61/119/61
f 58/116/58 48/105/48 63/121/63
f 62/120/62 64/122/64 57/115/57
f 64/122/64 55/113/55 57/115/57
f 63/121/63 48/105/48 65/123/65
f 65/123/65 48/105/48 50/107/50
f 66/124/66 65/123/65 50/107/50
f 66/124/66 50/107/50 52/109/52
f 66/124/66 52/109/52 67/125/67
f 67/125/67 65/123/65 66/124/66
f 52/109/52 53/110/53 67/125/67
f 68/126/68 65/123/65 67/125/67
f 63/121/63 65/123/65 68/126/68
f 69/127/69 67/125/67 53/110/53
f 69/127/69 68/126/68 67/125/67
f 69/127/69 53/110/53 70/128/70
f 70/128/70 68/126/68 69/127/69
f 53/110/53 71/129/71 70/128/70
f 71/129/71 72/131/72 70/128/70
f 73/133/73 63/121/63 68/126/68
f 70/128/70 73/133/73 68/126/68
f 74/134/74 63/121/63 73/133/73
f 74/134/74 58/116/58 63/121/63
f 75/135/75 73/133/73 70/128/70
f 75/135/75 74/134/74 73/133/73
f 70/128/70 72/131/72 75/135/75
f 76/136/76 58/116/58 74/134/74
f 58/116/58 76/136/76 61/119/61
f 76/136/76 74/134/74 77/137/77
f 77/137/77 74/134/74 75/135/75
f 61/119/61 76/136/76 78/138/78
f 76/136/76 77/137/77 78/138/78
f 79/139/79 75/135/75 72/131/72
f 79/139/79 72/131/72 80/140/80
f 81/142/81 79/139/79 80/140/80
f 81/142/81 82/144/82 79/139/79
f 77/137/77 75/135/75 83/145/83
f 79/139/79 83/145/83 75/135/75
f 77/137/77 83/145/83 78/138/78
f 82/144/82 83/145/83 79/139/79
f 78/138/78 83/145/83 84/146/84
f 83/145/83 82/144/82 84/146/84
f 85/147/85 61/119/61 78/138/78
f 85/147/85 78/138/78 84/146/84
f 85/147/85 62/120/62 61/119/61
f 84/146/84 82/144/82 86/148/86
f 86/148/86 85/147/85 84/146/84
f 82/144/82 87/149/87 86/148/86
f 85/147/85 88/150/88 62/120/62
f 64/122/64 62/120/62 88/150/88
f 86/148/86 87/149/87 89/151/89
f 85/147/85 86/148/86 89/151/89
f 89/151/89 87/149/87 90/152/90
f 91/153/91 88/150/88 85/147/85
f 85/147/85 89/151/89 91/153/91
f 88/150/88 91/153/91 64/122/64
f 92/154/92 89/151/89 90/152/90
f 91/153/91 89/151/89 93/155/93
f 93/155/93 89/151/89 92/154/92
f 91/153/91 94/156/94 64/122/64
f 95/157/95 91/153/91 93/155/93
f 94/156/94 91/153/91 95/157/95
f 96/158/96 95/157/95 93/155/93
f 96/158/96 94/156/94 95/157/95
f 94/156/94 97/159/97 64/122/64
f 97/159/97 55/113/55 64/122/64
f 98/160/98 94/156/94 96/158/96
f 98/160/98 97/159/97 94/156/94
f 99/161/99 96/158/96 93/155/93
f 99/161/99 93/155/93 92/154/92
f 100/162/100 98/160/98 96/158/96
f 97/159/97 98/160/98 101/163/101
f 100/162/100 101/163/101 98/160/98
f 102/164/102 55/113/55 97/159/97
f 102/164/102 97/159/97 101/163/101
f 103/165/103 55/113/55 102/164/102
f 103/165/103 102/164/102 101/163/101
f 55/113/55 103/165/103 104/166/104
f 55/113/55 104/166/104 41/94/41
f 39/88/39 41/94/41 104/166/104
f 103/165/103 101/163/101 105/167/105
f 103/165/103 105/167/105 104/166/104
f 104/166/104 106/168/106 39/88/39
f 106/168/106 104/166/104 105/167/105
f 43/98/43 39/88/39 106/168/106
f 101/163/101 107/169/107 105/167/105
f 107/169/107 101/163/101 100/162/100
f 108/170/108 107/169/107 100/162/100
f 107/169/107 108/170/108 105/167/105
f 100/162/100 96/158/96 108/170/108
f 99/161/99 108/170/108 96/158/96
f 108/170/108 109/171/109 105/167/105
f 110/172/110 108/170/108 99/161/99
f 110/172/110 109/171/109 108/170/108
f 105/167/105 109/171/109 111/173/111
f 111/173/111 109/171/109 110/172/110
f 106/168/106 105/167/105 111/173/111
f 112/174/112 110/172/110 99/161/99
f 99/161/99 92/154/92 112/174/112
f 113/175/113 110/172/110 112/174/112
f 111/173/111 110/172/110 113/175/113
f 114/176/114 112/174/112 92/154/92
f 114/176/114 92/154/92 90/152/90
f 115/177/115 113/175/113 112/174/112
f 112/174/112 114/176/114 115/177/115
f 116/178/116 113/175/113 115/177/115
f 111/173/111 113/175/113 116/178/116
f 115/177/115 114/176/114 117/179/117
f 117/179/117 116/178/116 115/177/115
f 114/176/114 90/152/90 118/180/118
f 117/179/117 114/176/114 118/180/118
f 118/180/118 90/152/90 81/143/81
f 81/143/81 80/141/80 118/180/118
f 119/181/119 117/179/117 118/180/118
f 118/180/118 80/141/80 119/181/119
f 117/179/117 119/181/119 116/178/116
f 80/141/80 120/182/120 119/181/119
f 120/182/120 80/141/80 72/132/72
f 71/130/71 120/182/120 72/132/72
f 119/181/119 120/182/120 121/183/121
f 121/183/121 120/182/120 71/130/71
f 121/183/121 116/178/116 119/181/119
f 121/183/121 71/130/71 53/111/53
f 121/183/121 122/184/122 116/178/116
f 116/178/116 122/184/122 111/173/111
f 123/185/123 121/183/121 53/111/53
f 123/185/123 122/184/122 121/183/121
f 122/184/122 124/186/124 111/173/111
f 122/184/122 123/185/123 125/187/125
f 122/184/122 125/187/125 124/186/124
f 124/186/124 126/188/126 111/173/111
f 124/186/124 125/187/125 126/188/126
f 126/188/126 106/168/106 111/173/111
f 123/185/123 127/189/127 125/187/125
f 127/189/127 126/188/126 125/187/125
f 106/168/106 126/188/126 128/190/128
f 128/190/128 126/188/126 127/189/127
f 106/168/106 128/190/128 43/98/43
f 37/83/37 43/98/43 128/190/128
f 129/191/129 127/189/127 123/185/123
f 129/191/129 128/190/128 127/189/127
f 129/191/129 123/185/123 53/111/53
f 37/83/37 128/190/128 130/192/130
f 130/192/130 128/190/128 129/191/129
f 130/192/130 129/191/129 53/111/53
f 130/192/130 47/104/47 37/83/37
f 47/104/47 130/192/130 53/111/53
f 30/69/30 131/193/131 4/12/4
f 30/69/30 26/63/26 131/193/131
f 131/193/131 7/22/7 4/12/4
f 132/194/132 131/193/131 26/63/26
f 26/63/26 24/60/24 132/194/132
f 7/22/7 131/193/131 133/195/133
f 131/193/131 132/194/132 133/195/133
f 133/195/133 15/42/15 7/22/7
f 17/46/17 15/42/15 133/195/133
f 134/196/134 132/194/132 24/60/24
f 133/195/133 132/194/132 134/196/134
f 24/60/24 21/54/21 134/196/134
f 17/46/17 133/195/133 135/197/135
f 17/46/17 135/197/135 19/50/19
f 133/195/133 134/196/134 136/198/136
f 135/197/135 133/195/133 136/198/136
f 136/198/136 134/196/134 21/54/21
f 136/198/136 19/50/19 135/197/135
f 21/54/21 19/50/19 136/198/136
f 137/199/137 32/72/32 3/8/3
f 137/199/137 28/66/28 32/72/32
f 5/16/5 137/199/137 3/8/3
f 28/66/28 137/199/137 138/200/138
f 138/200/138 23/58/23 28/66/28
f 137/199/137 5/16/5 139/201/139
f 139/201/139 138/200/138 137/199/137
f 16/44/16 139/201/139 5/16/5
f 23/58/23 138/200/138 140/202/140
f 138/200/138 139/201/139 140/202/140
f 140/202/140 22/56/22 23/58/23
f 18/48/18 139/201/139 16/44/16
f 22/56/22 140/202/140 141/203/141
f 140/202/140 139/201/139 141/203/141
f 141/203/141 20/52/20 22/56/22
f 142/204/142 139/201/139 18/48/18
f 141/203/141 139/201/139 142/204/142
f 142/204/142 18/48/18 20/52/20
f 20/52/20 141/203/141 142/204/142
